<mxfile host="app.diagrams.net" agent="Mozilla/5.0 (Windows NT 10.0; Win64; x64) AppleWebKit/537.36 (KHTML, like Gecko) Chrome/127.0.0.0 Safari/537.36 Edg/127.0.0.0" version="24.7.6">
  <diagram name="Page-1" id="GNRy_yPZgpD2jYKu0CPJ">
    <mxGraphModel dx="1002" dy="533" grid="1" gridSize="10" guides="1" tooltips="1" connect="1" arrows="1" fold="1" page="1" pageScale="1" pageWidth="850" pageHeight="1100" math="0" shadow="0">
      <root>
        <mxCell id="0" />
        <mxCell id="1" parent="0" />
        <mxCell id="2m_jBvpTWa6zziVXGlsR-8" style="edgeStyle=orthogonalEdgeStyle;rounded=0;orthogonalLoop=1;jettySize=auto;html=1;exitX=1;exitY=0.5;exitDx=0;exitDy=0;" edge="1" parent="1" source="2m_jBvpTWa6zziVXGlsR-1">
          <mxGeometry relative="1" as="geometry">
            <mxPoint x="390" y="140" as="targetPoint" />
            <Array as="points">
              <mxPoint x="130" y="210" />
              <mxPoint x="240" y="210" />
              <mxPoint x="240" y="145" />
              <mxPoint x="370" y="145" />
              <mxPoint x="370" y="140" />
            </Array>
          </mxGeometry>
        </mxCell>
        <mxCell id="2m_jBvpTWa6zziVXGlsR-11" style="edgeStyle=orthogonalEdgeStyle;rounded=0;orthogonalLoop=1;jettySize=auto;html=1;entryX=0;entryY=0.5;entryDx=0;entryDy=0;" edge="1" parent="1" source="2m_jBvpTWa6zziVXGlsR-1" target="2m_jBvpTWa6zziVXGlsR-13">
          <mxGeometry relative="1" as="geometry">
            <mxPoint x="350" y="305" as="targetPoint" />
            <Array as="points">
              <mxPoint x="240" y="205" />
              <mxPoint x="240" y="310" />
            </Array>
          </mxGeometry>
        </mxCell>
        <mxCell id="2m_jBvpTWa6zziVXGlsR-1" value="&lt;div&gt;&lt;font style=&quot;font-size: 14px;&quot;&gt;&lt;br&gt;&lt;/font&gt;&lt;/div&gt;&lt;font style=&quot;font-size: 14px;&quot;&gt;&lt;div&gt;&lt;font style=&quot;font-size: 14px;&quot;&gt;&lt;br&gt;&lt;/font&gt;&lt;/div&gt;&lt;div&gt;&lt;font style=&quot;font-size: 14px;&quot;&gt;&lt;br&gt;&lt;/font&gt;&lt;/div&gt;CRM-&lt;/font&gt;&lt;div&gt;&lt;font size=&quot;3&quot;&gt;Salesforce&lt;/font&gt;&lt;/div&gt;" style="whiteSpace=wrap;html=1;aspect=fixed;" vertex="1" parent="1">
          <mxGeometry x="20" y="150" width="110" height="110" as="geometry" />
        </mxCell>
        <mxCell id="2m_jBvpTWa6zziVXGlsR-2" value="" style="verticalLabelPosition=bottom;aspect=fixed;html=1;shape=mxgraph.salesforce.marketing;" vertex="1" parent="1">
          <mxGeometry x="55" y="160" width="40" height="40" as="geometry" />
        </mxCell>
        <mxCell id="2m_jBvpTWa6zziVXGlsR-13" value="Data Lake" style="swimlane;whiteSpace=wrap;html=1;" vertex="1" parent="1">
          <mxGeometry x="390" y="240" width="170" height="140" as="geometry" />
        </mxCell>
        <mxCell id="2m_jBvpTWa6zziVXGlsR-15" value="" style="sketch=0;outlineConnect=0;fontColor=#232F3E;gradientColor=none;fillColor=#8C4FFF;strokeColor=none;dashed=0;verticalLabelPosition=bottom;verticalAlign=top;align=center;html=1;fontSize=12;fontStyle=0;aspect=fixed;pointerEvents=1;shape=mxgraph.aws4.data_lake_resource_icon;" vertex="1" parent="2m_jBvpTWa6zziVXGlsR-13">
          <mxGeometry x="10" y="40" width="50" height="50" as="geometry" />
        </mxCell>
        <mxCell id="2m_jBvpTWa6zziVXGlsR-16" value="Adobe Experience Platform Data Lake" style="text;whiteSpace=wrap;html=1;fontSize=15;" vertex="1" parent="2m_jBvpTWa6zziVXGlsR-13">
          <mxGeometry x="70" y="45" width="90" height="40" as="geometry" />
        </mxCell>
        <mxCell id="2m_jBvpTWa6zziVXGlsR-14" value="Data Warehouse" style="swimlane;whiteSpace=wrap;html=1;fontSize=12;" vertex="1" parent="1">
          <mxGeometry x="390" y="70" width="175" height="140" as="geometry" />
        </mxCell>
        <mxCell id="2m_jBvpTWa6zziVXGlsR-12" value="" style="image;sketch=0;aspect=fixed;html=1;points=[];align=center;fontSize=12;image=img/lib/mscae/SQL_DataWarehouse.svg;" vertex="1" parent="2m_jBvpTWa6zziVXGlsR-14">
          <mxGeometry x="20" y="32" width="50" height="48" as="geometry" />
        </mxCell>
        <mxCell id="2m_jBvpTWa6zziVXGlsR-17" value="Portgres SQL&amp;nbsp;&lt;div style=&quot;font-size: 16px;&quot;&gt;Oracle&lt;/div&gt;&lt;div style=&quot;font-size: 16px;&quot;&gt;&lt;br style=&quot;font-size: 16px;&quot;&gt;&lt;/div&gt;" style="text;html=1;align=center;verticalAlign=middle;resizable=0;points=[];autosize=1;strokeColor=none;fillColor=none;fontSize=16;" vertex="1" parent="2m_jBvpTWa6zziVXGlsR-14">
          <mxGeometry x="55" y="80" width="120" height="70" as="geometry" />
        </mxCell>
        <mxCell id="2m_jBvpTWa6zziVXGlsR-18" value="&lt;font style=&quot;font-size: 15px;&quot;&gt;Orchestrator&amp;nbsp;&lt;/font&gt;&lt;div&gt;&lt;span style=&quot;font-size: 15px; background-color: initial;&quot;&gt;WorkFlow&amp;nbsp;&lt;/span&gt;&lt;div&gt;&lt;font style=&quot;font-size: 15px;&quot;&gt;Scheduler&lt;/font&gt;&lt;/div&gt;&lt;/div&gt;" style="rounded=0;whiteSpace=wrap;html=1;" vertex="1" parent="1">
          <mxGeometry x="30" y="410" width="640" height="60" as="geometry" />
        </mxCell>
        <mxCell id="2m_jBvpTWa6zziVXGlsR-19" value="" style="outlineConnect=0;dashed=0;verticalLabelPosition=bottom;verticalAlign=top;align=center;html=1;shape=mxgraph.aws3.data_pipeline;fillColor=#F58534;gradientColor=none;" vertex="1" parent="1">
          <mxGeometry x="160" y="410" width="40" height="51" as="geometry" />
        </mxCell>
        <mxCell id="2m_jBvpTWa6zziVXGlsR-20" value="" style="sketch=0;outlineConnect=0;fontColor=#232F3E;gradientColor=none;fillColor=#E7157B;strokeColor=none;dashed=0;verticalLabelPosition=bottom;verticalAlign=top;align=center;html=1;fontSize=12;fontStyle=0;aspect=fixed;pointerEvents=1;shape=mxgraph.aws4.eventbridge_scheduler;" vertex="1" parent="1">
          <mxGeometry x="487" y="411" width="49" height="49" as="geometry" />
        </mxCell>
        <mxCell id="2m_jBvpTWa6zziVXGlsR-21" value="" style="sketch=0;outlineConnect=0;fontColor=#232F3E;gradientColor=none;fillColor=#7AA116;strokeColor=none;dashed=0;verticalLabelPosition=bottom;verticalAlign=top;align=center;html=1;fontSize=12;fontStyle=0;aspect=fixed;pointerEvents=1;shape=mxgraph.aws4.iot_sitewise_data_streams;" vertex="1" parent="1">
          <mxGeometry x="150" y="120" width="78" height="78" as="geometry" />
        </mxCell>
        <mxCell id="2m_jBvpTWa6zziVXGlsR-22" value="" style="sketch=0;points=[[0,0,0],[0.25,0,0],[0.5,0,0],[0.75,0,0],[1,0,0],[0,1,0],[0.25,1,0],[0.5,1,0],[0.75,1,0],[1,1,0],[0,0.25,0],[0,0.5,0],[0,0.75,0],[1,0.25,0],[1,0.5,0],[1,0.75,0]];outlineConnect=0;fontColor=#232F3E;fillColor=#ED7100;strokeColor=#ffffff;dashed=0;verticalLabelPosition=bottom;verticalAlign=top;align=center;html=1;fontSize=12;fontStyle=0;aspect=fixed;shape=mxgraph.aws4.resourceIcon;resIcon=mxgraph.aws4.batch;" vertex="1" parent="1">
          <mxGeometry x="150" y="220" width="78" height="78" as="geometry" />
        </mxCell>
      </root>
    </mxGraphModel>
  </diagram>
</mxfile>
